<?xml version="1.0" standalone="no"?>
<!DOCTYPE svg PUBLIC "-//W3C//DTD SVG 20010904//EN"
 "http://www.w3.org/TR/2001/REC-SVG-20010904/DTD/svg10.dtd">
<svg version="1.0" xmlns="http://www.w3.org/2000/svg"
 width="1500.000000pt" height="1500.000000pt" viewBox="0 0 1500.000000 1500.000000"
 preserveAspectRatio="xMidYMid meet">
<metadata>
Created by potrace 1.11, written by Peter Selinger 2001-2013
</metadata>
<g transform="translate(0.000000,1500.000000) scale(0.100000,-0.100000)"
fill="#000000" stroke="none">
<path d="M0 7500 l0 -7500 7500 0 7500 0 0 7500 0 7500 -7500 0 -7500 0 0
-7500z m9620 4147 c191 -29 307 -56 464 -108 588 -193 1023 -594 1204 -1110
70 -200 102 -453 83 -663 -9 -100 -320 -1892 -707 -4066 -88 -494 -117 -596
-242 -845 -119 -237 -277 -450 -488 -655 -450 -438 -1036 -726 -1694 -832
-128 -21 -173 -22 -850 -25 l-715 -4 -185 186 -185 186 55 47 c267 227 532
553 694 855 l58 107 502 0 c398 0 521 3 587 15 357 62 662 310 762 620 27 82
757 4251 757 4321 0 285 -211 520 -524 585 -86 18 -152 19 -1121 18 -836 -1
-1020 -3 -975 -13 317 -71 512 -274 535 -558 5 -61 -2 -119 -43 -353 -28 -154
-197 -1110 -377 -2125 -179 -1015 -333 -1874 -341 -1910 l-15 -66 -867 -866
-867 -866 -114 -37 c-158 -50 -333 -92 -491 -116 -172 -27 -545 -37 -717 -20
-943 96 -1648 658 -1804 1439 -24 124 -35 368 -20 492 6 52 95 573 198 1158
l187 1062 447 0 c353 0 465 -3 533 -15 259 -45 456 -206 520 -424 33 -114 25
-184 -109 -944 -132 -749 -140 -815 -110 -927 36 -137 148 -286 270 -359 459
-277 1191 13 1334 528 11 38 86 447 167 908 81 461 262 1495 404 2298 l256
1460 -745 5 c-740 5 -747 5 -812 28 -180 60 -316 214 -370 419 -16 59 -21 109
-21 203 0 112 8 170 76 550 42 234 76 428 76 433 0 4 1176 6 2613 4 2426 -3
2620 -4 2727 -20z"/>
</g>
</svg>
